<svg xmlns="http://www.w3.org/2000/svg" xmlns:xlink="http://www.w3.org/1999/xlink" viewBox="0 0 236.82 77.76"><defs><style>.a{fill:url(#a);}.b{opacity:0.1;}.c{fill:#fff;}</style><linearGradient id="a" x1="11.39" y1="11.39" x2="66.37" y2="66.37" gradientUnits="userSpaceOnUse"><stop offset="0" stop-color="#3f51b5"/><stop offset="1" stop-color="#ff1744"/></linearGradient></defs><title>v8-zm-white</title><circle class="a" cx="38.88" cy="38.88" r="38.88"/><polyline class="b" points="22 61.29 67.74 17.3 21.4 57.45 27.55 65.31 38.15 69.05"/><polyline class="b" points="56.85 18.01 40.64 7.15 55.36 20.31 55.83 20.67"/><path class="c" d="M40.64,7.15,67.74,17.3,22.91,56.61c-.79.82-.64,1.66.16,2.12L39.79,69.56h0l-30.17-11L54.4,19.11a1.19,1.19,0,0,0-.33-2l-13.42-10"/><path class="c" d="M109.64,45.73h9.86v2.61H104.68l9.86-17.43h-9.86V28.29H119.5Z"/><path class="c" d="M127,48.14l-.23.54-2.92,6.85H121l4.36-10.18-4.79-11.18h2.72l3.5,7.91,3.5-7.91H133l-4.79,11.15Z"/><path class="c" d="M137.31,35.72a7,7,0,0,1,4.45-1.63v2.52a4.64,4.64,0,0,0-4.45,4.5v7.2h-2.58V33.94h2.58Z"/><path class="c" d="M156.09,33.94V48.31h-2.61V46.7a6.63,6.63,0,0,1-4.36,1.61,7.11,7.11,0,0,1,0-14.22,6.62,6.62,0,0,1,4.36,1.61V33.94Zm-2.61,7.86v-1.2a4.5,4.5,0,1,0,0,1.2Z"/><path class="c" d="M184.45,28.24v20H181.7V34.49l-6.22,13.82-6-13.82V48.28h-2.75v-20H170l5.48,13,5.71-13Z"/><path class="c" d="M200.34,41.17a5.5,5.5,0,0,1-.12,1.26H189a4.41,4.41,0,0,0,4.24,3.33A4,4,0,0,0,195.7,45h3.55a6.87,6.87,0,0,1-6,3.35,7.21,7.21,0,1,1,7.05-7.2ZM189,39.88h8.54a4.51,4.51,0,0,0-4.3-3.33A4.44,4.44,0,0,0,189,39.88Z"/><path class="c" d="M216.2,26.8V48.28h-2.58V46.62a6.75,6.75,0,0,1-4.39,1.66,7.13,7.13,0,0,1-7-7.23,7,7,0,0,1,7-7.14,6.68,6.68,0,0,1,4.39,1.58V26.8Zm-2.58,14.85v-1.2a4.39,4.39,0,0,0-4.39-4,4.56,4.56,0,0,0,0,9.12A4.39,4.39,0,0,0,213.62,41.66Z"/><path class="c" d="M219.67,28.44A1.38,1.38,0,0,1,221,29.79a1.37,1.37,0,0,1-1.35,1.35,1.35,1.35,0,0,1-1.35-1.35A1.37,1.37,0,0,1,219.67,28.44ZM221,48.28h-2.58V34H221Z"/><path class="c" d="M236.82,33.94V48.31h-2.61V46.7a6.63,6.63,0,0,1-4.36,1.61,7.11,7.11,0,0,1,0-14.22,6.62,6.62,0,0,1,4.36,1.61V33.94Zm-2.61,7.86v-1.2a4.5,4.5,0,1,0,0,1.2Z"/></svg>